<?xml version="1.0" encoding="UTF-8"?>
<svg width="210px" height="50px" viewBox="0 0 210 50" version="1.1" xmlns="http://www.w3.org/2000/svg" xmlns:xlink="http://www.w3.org/1999/xlink">
    <!-- Generator: Sketch 47.1 (45422) - http://www.bohemiancoding.com/sketch -->
    <title>SXI Logo/White</title>
    <desc>Created with Sketch.</desc>
    <defs></defs>
    <g id="Symbols" stroke="none" stroke-width="1" fill="none" fill-rule="evenodd">
        <g id="SXI-Logo/White" fill-rule="nonzero">
            <g id="SXI-Logo">
                <g id="Main-Logo">
                    <path d="M99.5902865,29.2679337 C99.5902865,33.1043622 96.7187598,36.1260204 92.9798469,36.1260204 L72.9145212,36.1260204 C69.2203297,36.1260204 66.2406397,33.0165051 66.2406397,29.2679337 C66.2229592,29.2679337 66.2406397,21.3179082 66.2406397,21.3179082 L83.1650706,0.0282397959 L78.5566915,0.0282397959 L66.2406397,15.4921429 L66.2406397,10.8984694 C66.1366366,4.90535714 61.3004906,0.0282397959 55.3671115,0.0282397959 L33.3694074,0.0282397959 L11.296821,0.0282397959 C5.29687991,0.0282397959 0.51377551,5.0109949 0.51377551,11.0971939 C0.51377551,16.7503827 4.1705259,22.0239031 11.0815345,22.0239031 L32.3116954,22.0239031 C35.7978807,22.2655102 39.0282182,25.291352 39.0282182,28.9384694 C39.0282182,32.6975 35.8166013,36.0852296 32.1213697,36.0852296 L0.511695447,36.0852296 L0.511695447,40.1423469 L32.0776884,40.1423469 C38.0776295,40.1423469 43.094741,35.0393112 43.094741,28.8642092 C43.094741,22.6891071 37.6460165,18.0828827 31.6460754,18.0828827 L9.85845761,18.0828827 C5.91777865,17.5285459 4.53869702,14.4985204 4.53869702,11.0971939 C4.53869702,7.39255102 7.60262951,4.02992347 11.2978611,4.02992347 L33.3704474,4.02992347 L55.3681515,4.02992347 C59.060263,4.02992347 62.1002747,7.34130102 62.1065149,11.0856888 L62.1065149,20.5564796 L46.4914835,40.1433929 L51.2725078,40.1433929 L62.1054749,26.4115306 L62.1054749,29.2689796 C62.1054749,29.2689796 61.7737049,40.1433929 72.9145212,40.1433929 C72.9145212,40.1433929 89.7640699,40.1433929 94.2382849,40.1433929 C99.2356358,40.1433929 103.576727,35.438852 103.576727,29.2689796 L103.576727,9.38397959 L99.5902865,9.38397959 L99.5902865,29.2679337 Z" id="SXI" fill="#FFFFFF"></path>
                    <ellipse id="Dot" fill="#57C1E8" cx="101.662029" cy="4.01005102" rx="3.95939953" ry="3.98181122"></ellipse>
                </g>
                <g id="solutions" transform="translate(113.000000, 0.000000)" fill="#FFFFFF">
                    <path d="M0.39704733,13.0295918 L2.44793747,13.0295918 C2.44793747,13.9653061 2.73868867,14.7163265 3.32227529,15.2826531 C3.9048198,15.8489796 4.6791142,16.1306122 5.64411637,16.1306122 C6.6289188,16.1306122 7.41259227,15.9540816 7.9961789,15.6 C8.57976552,15.2469388 8.87051672,14.7857143 8.87051672,14.2153061 C8.87051672,13.4295918 8.4578376,12.8112245 7.63352149,12.3602041 C6.94989145,11.9877551 6.06513244,11.7510204 4.97924446,11.6530612 C3.83291359,11.555102 2.86895354,11.1428571 2.08423795,10.4163265 C1.25992184,9.67040816 0.847242727,8.77653061 0.847242727,7.73571429 C0.847242727,6.61632653 1.26930091,5.72346939 2.11341728,5.05612245 C2.93773339,4.38877551 4.04342162,4.05510204 5.4315241,4.05510204 C6.9582284,4.05510204 8.17542336,4.46836735 9.07998263,5.29489796 C10.0043422,6.10204082 10.467043,7.18469388 10.467043,8.54285714 L8.41615284,8.54285714 C8.41615284,7.73571429 8.14520191,7.08571429 7.60225792,6.59387755 C7.05931394,6.10204082 6.33504125,5.85612245 5.4315241,5.85612245 C4.66660877,5.85612245 4.05384281,6.02346939 3.59114199,6.35816327 C3.12844116,6.71326531 2.89709075,7.1755102 2.89709075,7.74591837 C2.89709075,8.43469388 3.26704299,8.95714286 4.00798958,9.31122449 C4.56969171,9.60714286 5.35023882,9.79387755 6.35171515,9.87244898 C7.59392097,9.97142857 8.65479809,10.3846939 9.53643074,11.1122449 C10.4576639,11.8795918 10.9182805,12.8153061 10.9182805,13.9173469 C10.9182805,15.1387755 10.4618324,16.1132653 9.55102041,16.8408163 C8.63291359,17.5693878 7.4084238,17.9336735 5.8817195,17.9336735 C4.2122449,17.9336735 2.88562744,17.4908163 1.90082501,16.605102 C0.899348676,15.6979592 0.39704733,14.5061224 0.39704733,13.0295918 Z" id="s"></path>
                    <path d="M12.429353,11.2285714 C12.429353,9.12244898 12.9910551,7.43979592 14.1144594,6.17959184 C15.2378637,4.92040816 16.7322623,4.28979592 18.5966131,4.28979592 C20.460964,4.28979592 21.9657838,4.92040816 23.1089883,6.17959184 C24.2323925,7.43979592 24.7940947,9.12244898 24.7940947,11.2285714 C24.7940947,13.3357143 24.2323925,15.0183673 23.1089883,16.2785714 C21.9657838,17.5387755 20.460964,18.1683673 18.5966131,18.1683673 C16.7322623,18.1683673 15.2368215,17.5387755 14.1144594,16.2785714 C12.9910551,15.0183673 12.429353,13.3357143 12.429353,11.2285714 Z M14.4802432,11.2142857 C14.4802432,12.7653061 14.8522796,14.0112245 15.5963526,14.9540816 C16.3602258,15.8959184 17.3648285,16.3673469 18.6122449,16.3673469 C19.8586192,16.3673469 20.8632219,15.8959184 21.6281372,14.9540816 C22.3722102,14.0122449 22.7442466,12.7653061 22.7442466,11.2142857 C22.7442466,9.66326531 22.3722102,8.42653061 21.6281372,7.50408163 C20.864264,6.56122449 19.8586192,6.09081633 18.6122449,6.09081633 C17.3648285,6.09081633 16.3602258,6.56122449 15.5963526,7.50408163 C14.8522796,8.42653061 14.4802432,9.66326531 14.4802432,11.2142857 Z" id="o"></path>
                    <polygon id="l" points="27.2066001 17.9612245 27.2066001 0.00714285714 29.2574902 0.00714285714 29.2574902 17.9612245"></polygon>
                    <path d="M32.0920538,12.8234694 L32.0920538,4.73265306 L34.142944,4.73265306 L34.142944,12.5673469 C34.142944,13.5877551 34.4336952,14.4622449 35.0172818,15.1877551 C35.640469,15.9744898 36.4241424,16.3663265 37.3693443,16.3663265 C38.3947894,16.3663265 39.258706,15.9928571 39.9631785,15.2469388 C40.6666088,14.5010204 41.018845,13.6081633 41.018845,12.5673469 L41.018845,4.73265306 L43.0697351,4.73265306 L43.0697351,17.9612245 L41.018845,17.9612245 L41.018845,16.1602041 C40.6363873,16.8295918 40.0538428,17.3408163 39.2701693,17.6959184 C38.5656969,18.0102041 37.7820234,18.1683673 36.9181068,18.1683673 C35.5310465,18.1683673 34.3742944,17.6265306 33.4499349,16.5438776 C32.5443335,15.5 32.0920538,14.2602041 32.0920538,12.8234694 Z" id="u"></path>
                    <path d="M46.7171515,4.73265306 L46.7171515,0.892857143 L48.7680417,0.892857143 L48.7680417,4.73163265 L50.8491533,4.73163265 L50.8491533,6.53265306 L48.7680417,6.53265306 L48.7680417,15.0663265 C48.7680417,15.3020408 48.8576639,15.5091837 49.0389926,15.6857143 C49.2203213,15.8632653 49.4308294,15.9520408 49.6715588,15.9520408 L50.8481112,15.9520408 L50.8481112,17.9602041 L49.007729,17.9602041 C48.3845419,17.9602041 47.8415979,17.7438776 47.3799392,17.3102041 C46.9370386,16.8581633 46.7161094,16.3265306 46.7161094,15.7163265 L46.7161094,6.53265306 L44.8767694,6.53265306 L44.8767694,4.73163265 L46.7171515,4.73163265 L46.7171515,4.73265306 Z" id="t"></path>
                    <path d="M52.869822,2.01530612 L52.869822,0.00714285714 L54.9207121,0.00714285714 L54.9207121,2.01530612 L52.869822,2.01530612 Z M52.869822,17.9612245 L52.869822,4.49591837 L54.9207121,4.49591837 L54.9207121,17.9612245 L52.869822,17.9612245 Z" id="i"></path>
                    <path d="M57.3029961,11.2285714 C57.3029961,9.12244898 57.8646982,7.43979592 58.9870604,6.17959184 C60.1104646,4.92040816 61.6048632,4.28979592 63.4702562,4.28979592 C65.3356492,4.28979592 66.8394268,4.92040816 67.9826314,6.17959184 C69.1060356,7.43979592 69.6677377,9.12244898 69.6677377,11.2285714 C69.6677377,13.3357143 69.1060356,15.0183673 67.9826314,16.2785714 C66.8394268,17.5387755 65.334607,18.1683673 63.4702562,18.1683673 C61.6048632,18.1683673 60.1104646,17.5387755 58.9870604,16.2785714 C57.8636561,15.0183673 57.3029961,13.3357143 57.3029961,11.2285714 Z M59.3528441,11.2142857 C59.3528441,12.7653061 59.7248806,14.0112245 60.4689535,14.9540816 C61.2328267,15.8959184 62.2374294,16.3673469 63.4848459,16.3673469 C64.7312201,16.3673469 65.7358228,15.8959184 66.5007382,14.9540816 C67.2448111,14.0122449 67.6168476,12.7653061 67.6168476,11.2142857 C67.6168476,9.66326531 67.2448111,8.42653061 66.5007382,7.50408163 C65.736865,6.56122449 64.7312201,6.09081633 63.4848459,6.09081633 C62.2374294,6.09081633 61.2328267,6.56122449 60.4689535,7.50408163 C59.7248806,8.42653061 59.3528441,9.66326531 59.3528441,11.2142857 Z" id="o"></path>
                    <path d="M72.0489796,17.9612245 L72.0489796,4.93877551 L74.0998697,4.93877551 L74.0946591,6.29693878 C74.4552323,5.68673469 74.986713,5.2244898 75.6891012,4.90918367 C76.3508467,4.63367347 77.0824142,4.49591837 77.8838037,4.49591837 C79.3073383,4.49591837 80.5203647,5.00816327 81.5228832,6.03163265 C82.5254017,7.03571429 83.0266609,8.24591837 83.0266609,9.66428571 L83.0266609,17.9622449 L80.9757707,17.9622449 L80.9757707,9.66326531 C80.9757707,8.75816327 80.6443769,7.98979592 79.9805471,7.36020408 C79.3167173,6.73061224 78.5122015,6.41530612 77.5680417,6.41530612 C76.6238819,6.41530612 75.8089449,6.73061224 75.1253148,7.36020408 C74.4416848,7.99081633 74.0998697,8.75816327 74.0998697,9.66326531 L74.0998697,17.9612245 L72.0489796,17.9612245 Z" id="n"></path>
                    <path d="M84.9264438,13.0295918 L86.9773339,13.0295918 C86.9773339,13.9653061 87.2680851,14.7163265 87.8516717,15.2826531 C88.4352584,15.8489796 89.2085106,16.1306122 90.1745549,16.1306122 C91.1593574,16.1306122 91.9430308,15.9540816 92.5266175,15.6 C93.1102041,15.2469388 93.4009553,14.7857143 93.4009553,14.2153061 C93.4009553,13.4295918 92.9882762,12.8112245 92.1639601,12.3602041 C91.48033,11.9877551 90.595571,11.7510204 89.5107251,11.6530612 C88.3643943,11.555102 87.3993921,11.1428571 86.6157186,10.4163265 C85.7914025,9.67040816 85.3787234,8.77653061 85.3787234,7.73571429 C85.3787234,6.61632653 85.8007816,5.72346939 86.6459401,5.05612245 C87.4702562,4.38877551 88.5759444,4.05510204 89.9630048,4.05510204 C91.4907512,4.05510204 92.706904,4.46836735 93.6114633,5.29489796 C94.5358228,6.10204082 94.9985237,7.18469388 94.9985237,8.54285714 L92.9476335,8.54285714 C92.9476335,7.73571429 92.6766826,7.08571429 92.1337386,6.59387755 C91.5907946,6.10204082 90.867564,5.85612245 89.9630048,5.85612245 C89.1980894,5.85612245 88.5853235,6.02346939 88.1236648,6.35816327 C87.660964,6.71326531 87.4296135,7.1755102 87.4296135,7.74591837 C87.4296135,8.43469388 87.7995658,8.95714286 88.5415545,9.31122449 C89.1022145,9.60714286 89.8827616,9.79387755 90.8852801,9.87244898 C92.1274859,9.97142857 93.1894051,10.3846939 94.0699957,11.1122449 C94.9912288,11.8795918 95.4518454,12.8153061 95.4518454,13.9173469 C95.4518454,15.1387755 94.9964394,16.1132653 94.0845853,16.8408163 C93.1664785,17.5693878 91.9430308,17.9336735 90.4152844,17.9336735 C88.7458098,17.9336735 87.4191924,17.4908163 86.4343899,16.605102 C85.4287451,15.6979592 84.9264438,14.5061224 84.9264438,13.0295918 Z" id="s"></path>
                </g>
                <g id="exchange" transform="translate(113.000000, 21.000000)" fill="#FFFFFF">
                    <path d="M1.72366479,16.2193878 C0.678419453,14.9785714 0.155275727,13.3459184 0.155275727,11.3173469 C0.155275727,9.28979592 0.677377334,7.65612245 1.72366479,6.41530612 C2.76891012,5.19489796 4.15597047,4.58469388 5.88588797,4.58469388 C7.61476335,4.58469388 9.00182371,5.14591837 10.047069,6.26734694 C11.0923144,7.38979592 11.6154581,8.88571429 11.6154581,10.755102 L11.6154581,11.3163265 L1.3620495,11.3163265 C1.3620495,13.0285714 1.7736865,14.3979592 2.59800261,15.4204082 C3.42231871,16.4438776 4.51758576,16.9561224 5.88588797,16.9561224 C6.91029092,16.9561224 7.83569257,16.6897959 8.66000868,16.1591837 C9.50412505,15.6081633 10.0877117,14.8887755 10.4086843,14.0030612 L11.6154581,14.0030612 C11.4143291,15.1642857 10.7702996,16.1285714 9.68545376,16.8969388 C8.6006079,17.6653061 7.33339123,18.0479592 5.88588797,18.0479592 C4.15597047,18.05 2.76891012,17.4397959 1.72366479,16.2193878 Z M10.4086843,10.1959184 L10.4086843,9.75306122 C10.3075988,8.59183673 9.8250977,7.60714286 8.96118107,6.8 C8.07537994,6.01326531 7.05097699,5.61836735 5.88484585,5.61836735 C4.71871472,5.61836735 3.70264872,6.02244898 2.83873209,6.82959184 C1.95293096,7.65714286 1.4610508,8.67040816 1.36100738,9.87142857 L1.36100738,10.1959184 L10.4086843,10.1959184 Z" id="e"></path>
                    <polygon id="x" points="16.3841945 10.9928571 12.0416848 5.02755102 13.3985237 5.02755102 17.1980894 10.1061224 20.9684759 5.02755102 22.3253148 5.02755102 17.8619192 10.9928571 22.7775944 17.6071429 21.4207555 17.6071429 17.0782458 11.9969388 12.946244 17.6071429 11.5591837 17.6071429"></polygon>
                    <path d="M24.6815458,16.1602041 C23.4945723,14.8214286 22.9026487,13.2071429 22.9026487,11.3173469 C22.9026487,9.46734694 23.4945723,7.88265306 24.6815458,6.56326531 C25.8674772,5.24489796 27.3056014,4.58469388 28.9938341,4.58469388 C30.3819366,4.58469388 31.5668259,4.98877551 32.5526704,5.79591837 C33.5374729,6.62346939 34.0303951,7.60714286 34.0303951,8.74897959 L32.8236214,8.74897959 C32.8236214,7.92142857 32.4515849,7.21326531 31.7075119,6.62346939 C30.963439,6.03265306 30.0588797,5.73673469 28.9938341,5.73673469 C27.6474164,5.73673469 26.4906644,6.27857143 25.5256622,7.36122449 C24.5804603,8.46428571 24.1083804,9.78265306 24.1083804,11.3183673 C24.1083804,12.8928571 24.5804603,14.2418367 25.5256622,15.3632653 C26.4906644,16.4857143 27.6463743,17.0459184 28.9938341,17.0459184 C30.0390795,17.0459184 30.9238385,16.7408163 31.6481112,16.1306122 C32.391142,15.5204082 32.7642206,14.7918367 32.7642206,13.944898 L34.0303951,13.944898 C34.0303951,15.1071429 33.5374729,16.1010204 32.5526704,16.927551 C31.5668259,17.755102 30.3819366,18.1683673 28.9938341,18.1683673 C27.3045593,18.1683673 25.8674772,17.4989796 24.6815458,16.1602041 Z" id="c"></path>
                    <path d="M35.3914025,17.6071429 L35.3914025,0.0969387755 L36.5971342,0.0969387755 L36.5971342,7.39081633 C36.9993921,6.54387755 37.602779,5.86530612 38.4062527,5.35306122 C39.1909683,4.84183673 40.0444637,4.58571429 40.9698654,4.58571429 C42.175597,4.58571429 43.2114633,5.02857143 44.0753799,5.91428571 C44.9392966,6.78061224 45.3728181,7.83367347 45.3728181,9.0744898 L45.3728181,17.6081633 L44.1660443,17.6081633 L44.1660443,9.31122449 C44.1660443,8.2877551 43.8544507,7.42040816 43.2312636,6.7122449 C42.6080764,5.98469388 41.8535823,5.61938776 40.9698654,5.61938776 C39.985063,5.61938776 39.0898828,5.9744898 38.2853669,6.68265306 C37.4610508,7.37142857 36.8983066,8.27653061 36.5960921,9.4 L36.5960921,17.6081633 L35.3914025,17.6081633 L35.3914025,17.6071429 Z" id="h"></path>
                    <path d="M48.061485,17.0163265 C47.1569257,16.3081633 46.7046461,15.4612245 46.7046461,14.4765306 C46.7046461,13.5316327 47.1465046,12.705102 48.0312636,11.9959184 C48.8951802,11.2867347 49.9810682,10.8734694 51.2878854,10.755102 C52.555102,10.6367347 53.5899262,10.4408163 54.394442,10.1642857 C55.2187581,9.88877551 55.6314373,9.56428571 55.6314373,9.18979592 L55.6314373,8.06734694 C55.6314373,7.41734694 55.269822,6.86734694 54.5455493,6.41428571 C53.842119,5.96122449 52.9771602,5.73469388 51.9517152,5.73469388 C50.986713,5.73469388 50.1519757,5.95204082 49.4485454,6.38469388 C48.7649153,6.8377551 48.4231003,7.36938776 48.4231003,7.97857143 L48.4231003,8.62857143 L47.2767694,8.62857143 L47.2767694,7.86122449 C47.2767694,7.01428571 47.7290491,6.29591837 48.6336083,5.70510204 C49.5579679,5.11428571 50.6646982,4.81938776 51.950673,4.81938776 C53.2772905,4.81938776 54.4132002,5.10510204 55.3594442,5.6755102 C56.303604,6.24693878 56.776726,6.93571429 56.776726,7.74183673 L56.776726,15.3602041 C56.776726,15.8520408 56.8871906,16.2755102 57.1081198,16.6306122 C57.3290491,16.9846939 57.6010421,17.1622449 57.9220148,17.1622449 C58.0220582,17.1622449 58.1127225,17.1530612 58.1929657,17.1336735 C58.2732089,17.1132653 58.3336518,17.0846939 58.3742944,17.044898 L58.3742944,17.6061224 C58.073122,17.7438776 57.6906644,17.8132653 57.2279635,17.8132653 C56.7652627,17.8132653 56.3630048,17.6163265 56.0211898,17.222449 C55.699175,16.8285714 55.5386887,16.3561224 55.5386887,15.805102 C55.2979592,16.4744898 54.7852366,17.0163265 54.0005211,17.4295918 C53.2168476,17.8428571 52.3122883,18.0489796 51.2868432,18.0489796 C50.0217108,18.05 48.946244,17.705102 48.061485,17.0163265 Z M54.122449,16.1306122 C54.9467651,15.4612245 55.4501086,14.605102 55.6303951,13.5612245 L55.6303951,10.6673469 C55.3479809,10.9030612 54.8363005,11.1 54.0922275,11.2581633 C53.3887972,11.4163265 52.4540165,11.5438776 51.2878854,11.6418367 C50.3426835,11.7204082 49.5496309,12.0357143 48.9056014,12.5867347 C48.2615719,13.1183673 47.9405992,13.7489796 47.9405992,14.4765306 C47.9405992,15.2255102 48.2719931,15.855102 48.9358228,16.3663265 C49.5788102,16.8979592 50.3635258,17.1632653 51.2878854,17.1632653 C52.3539731,17.1642857 53.2981329,16.8204082 54.122449,16.1306122 Z" id="a"></path>
                    <path d="M59.4341294,17.6071429 L59.4341294,5.02755102 L60.6409032,5.02755102 L60.6409032,7.15306122 C61.0025185,6.40510204 61.5548415,5.81428571 62.2989145,5.38163265 C63.0429874,4.92959184 63.8673035,4.70204082 64.7729049,4.70204082 C66.0390795,4.70204082 67.1145462,5.10612245 67.9993053,5.91326531 C68.9038645,6.74081633 69.3561442,7.7244898 69.3561442,8.86632653 L69.3561442,17.6061224 L68.1493704,17.6061224 L68.1493704,8.86734694 C68.1493704,8.00102041 67.8179766,7.26326531 67.1541468,6.65204082 C66.490317,6.04183673 65.6962223,5.73673469 64.7718628,5.73673469 C63.766218,5.73673469 62.8720799,6.07244898 62.0873643,6.74081633 C61.3036908,7.42959184 60.8211898,8.28673469 60.6398611,9.31020408 L60.6398611,17.6071429 L59.4341294,17.6071429 L59.4341294,17.6071429 Z" id="n"></path>
                    <path d="M72.5877551,20.9142857 C71.5018671,20.1071429 70.9599653,19.1428571 70.9599653,18.0204082 L72.1062961,18.0204082 C72.1062961,18.8663265 72.5283543,19.594898 73.3724707,20.2061224 C74.2374294,20.7969388 75.2722536,21.0918367 76.4790274,21.0918367 C77.8056448,21.0918367 78.8613113,20.7469388 79.6460269,20.0581633 C80.4495007,19.3693878 80.8517586,18.4438776 80.8517586,17.2826531 L80.8517586,14.7132653 C80.4693009,15.5408163 79.8867564,16.1897959 79.1030829,16.6622449 C78.2985671,17.1540816 77.4336083,17.4 76.5092488,17.4 C74.8199739,17.4 73.4735562,16.8204082 72.4689535,15.6581633 C71.4435085,14.4765306 70.9307859,12.922449 70.9307859,10.9928571 C70.9307859,9.06326531 71.4435085,7.50816327 72.4689535,6.32755102 C73.4735562,5.16632653 74.8210161,4.58469388 76.5092488,4.58469388 C77.4940512,4.58469388 78.3892314,4.84081633 79.1937473,5.35204082 C79.9774208,5.86428571 80.5307859,6.54285714 80.8517586,7.38979592 L80.8517586,5.02755102 L82.0585323,5.02755102 L82.0585323,17.3122449 C82.0585323,18.827551 81.5656101,19.9989796 80.5808076,20.8255102 C79.6158055,21.672449 78.2485454,22.0959184 76.4790274,22.0959184 C74.9502388,22.0959184 73.6528007,21.7020408 72.5877551,20.9142857 Z M79.5834998,14.8908163 C80.4286583,13.8081633 80.8496743,12.5091837 80.8496743,10.9928571 C80.8496743,9.47755102 80.4276162,8.17755102 79.5834998,7.09489796 C78.7393834,6.03163265 77.7139383,5.5 76.5071646,5.5 C75.1805471,5.5 74.1248806,6.00204082 73.340165,7.00612245 C72.5366913,8.01020408 72.1354755,9.33877551 72.1354755,10.9928571 C72.1354755,12.6469388 72.5366913,13.9755102 73.3412071,14.9785714 C74.1248806,15.9826531 75.1815892,16.4857143 76.5082067,16.4857143 C77.7149805,16.4857143 78.7393834,15.9530612 79.5834998,14.8908163 Z" id="g"></path>
                    <path d="M85.4391663,16.2193878 C84.393921,14.9785714 83.8707772,13.3459184 83.8707772,11.3173469 C83.8707772,9.28979592 84.393921,7.65612245 85.4391663,6.41530612 C86.4844116,5.19489796 87.871472,4.58469388 89.6013895,4.58469388 C91.3302649,4.58469388 92.7173252,5.14591837 93.7636127,6.26734694 C94.808858,7.38979592 95.3320017,8.88571429 95.3320017,10.755102 L95.3320017,11.3163265 L85.0785931,11.3163265 C85.0785931,13.0285714 85.4902301,14.3979592 86.3155884,15.4204082 C87.1399045,16.4438776 88.2351715,16.9561224 89.6024316,16.9561224 C90.6278767,16.9561224 91.5522362,16.6897959 92.3775944,16.1591837 C93.2217108,15.6081633 93.8042553,14.8887755 94.1262701,14.0030612 L95.3330439,14.0030612 C95.1319149,15.1642857 94.4878854,16.1285714 93.4030395,16.8969388 C92.3171515,17.6642857 91.050977,18.0479592 89.6034737,18.0479592 C87.871472,18.05 86.4844116,17.4397959 85.4391663,16.2193878 Z M94.1241858,10.1959184 L94.1241858,9.75306122 C94.0231003,8.59183673 93.5405992,7.60714286 92.6766826,6.8 C91.7919236,6.01326531 90.7664785,5.61836735 89.6003474,5.61836735 C88.4342162,5.61836735 87.4191924,6.02244898 86.5542336,6.82959184 C85.6694746,7.65714286 85.1765523,8.67040816 85.0765089,9.87142857 L85.0765089,10.1959184 L94.1241858,10.1959184 Z" id="e"></path>
                </g>
                <g id="inc." transform="translate(197.000000, 42.000000)" fill="#FFFFFF">
                    <path d="M0.496938776,0.984693878 L0.898979592,0.984693878 L0.898979592,1.59795918 L0.496938776,1.59795918 L0.496938776,0.984693878 Z M0.496938776,6.94489796 L0.496938776,2.66326531 L0.898979592,2.66326531 L0.898979592,6.94489796 L0.496938776,6.94489796 Z" id="i"></path>
                    <path d="M2.18571429,6.94489796 L2.18571429,2.66326531 L2.5877551,2.66326531 L2.5877551,3.38673469 C2.70816327,3.13163265 2.89285714,2.93163265 3.14081633,2.78367347 C3.38877551,2.63061224 3.66326531,2.55306122 3.96530612,2.55306122 C4.3877551,2.55306122 4.74591837,2.69081633 5.04081633,2.96530612 C5.34183673,3.24693878 5.49285714,3.58163265 5.49285714,3.97040816 L5.49285714,6.94591837 L5.09081633,6.94591837 L5.09081633,3.96938776 C5.09081633,3.6744898 4.98061224,3.42346939 4.75918367,3.21530612 C4.5377551,3.00816327 4.27244898,2.90408163 3.96530612,2.90408163 C3.62959184,2.90408163 3.33163265,3.01836735 3.07142857,3.24591837 C2.81020408,3.48061224 2.64897959,3.77244898 2.58877551,4.12040816 L2.58877551,6.94489796 L2.18571429,6.94489796 Z" id="n"></path>
                    <path d="M7.01020408,6.45204082 C6.61428571,5.99693878 6.41734694,5.44693878 6.41734694,4.80408163 C6.41734694,4.1744898 6.61428571,3.63469388 7.01020408,3.18571429 C7.40612245,2.73673469 7.88469388,2.5122449 8.44795918,2.5122449 C8.91020408,2.5122449 9.30612245,2.65 9.63367347,2.9244898 C9.9622449,3.20612245 10.1265306,3.54081633 10.1265306,3.92959184 L9.7244898,3.92959184 C9.7244898,3.64795918 9.6,3.40714286 9.35306122,3.20612245 C9.10510204,3.00510204 8.80306122,2.90510204 8.44795918,2.90510204 C7.99897959,2.90510204 7.61428571,3.08979592 7.29183673,3.45816327 C6.97653061,3.83367347 6.81938776,4.28265306 6.81938776,4.80510204 C6.81938776,5.34081633 6.97653061,5.8 7.29183673,6.18163265 C7.61326531,6.56428571 7.99897959,6.75510204 8.44795918,6.75510204 C8.79591837,6.75510204 9.09081633,6.65102041 9.33265306,6.44387755 C9.58061224,6.23571429 9.70510204,5.9877551 9.70510204,5.7 L10.127551,5.7 C10.127551,6.09489796 9.96326531,6.43367347 9.63469388,6.71530612 C9.30714286,6.99693878 8.91122449,7.1377551 8.44897959,7.1377551 C7.88469388,7.13571429 7.40612245,6.90816327 7.01020408,6.45204082 Z" id="c"></path>
                    <polygon id="dot" points="11.0010204 6.33163265 11.5836735 6.33163265 11.5836735 6.94489796 11.0010204 6.94489796"></polygon>
                </g>
            </g>
        </g>
    </g>
</svg>